HIERARCHY
ROOT Hips
{
	OFFSET 0.0000 0.0000 0.0000
	CHANNELS 6 Xposition Yposition Zposition Zrotation Xrotation Yrotation
	JOINT Ab
	{
		OFFSET -0.0000 8.1305 -0.0000
		CHANNELS 3 Zrotation Xrotation Yrotation
		JOINT Chest
		{
			OFFSET -0.0000 26.2902 -0.0000
			CHANNELS 3 Zrotation Xrotation Yrotation
			JOINT Neck
			{
				OFFSET -0.0000 26.2902 0.0000
				CHANNELS 3 Zrotation Xrotation Yrotation
				JOINT Head
				{
					OFFSET -0.0000 10.8167 0.0000
					CHANNELS 3 Zrotation Xrotation Yrotation
					End Site
					{
						OFFSET -0.0000 16.7167 0.0000
					}
				}
			}
			JOINT LeftCollar
			{
				OFFSET -0.0000 26.2902 0.0000
				CHANNELS 3 Zrotation Xrotation Yrotation
				JOINT LeftShoulder
				{
					OFFSET 19.6667 -0.0000 0.0000
					CHANNELS 3 Zrotation Xrotation Yrotation
					JOINT LeftElbow
					{
						OFFSET 27.2190 0.0000 0.0000
						CHANNELS 3 Zrotation Xrotation Yrotation
						JOINT LeftWrist
						{
							OFFSET 30.7431 0.0000 0.0000
							CHANNELS 3 Zrotation Xrotation Yrotation
							End Site
							{
								OFFSET 0.0000 -14.7500 0.0000
							}
						}
					}
				}
			}
			JOINT RightCollar
			{
				OFFSET -0.0000 26.2902 0.0000
				CHANNELS 3 Zrotation Xrotation Yrotation
				JOINT RightShoulder
				{
					OFFSET -19.6667 0.0000 0.0000
					CHANNELS 3 Zrotation Xrotation Yrotation
					JOINT RightElbow
					{
						OFFSET -27.2190 0.0000 0.0000
						CHANNELS 3 Zrotation Xrotation Yrotation
						JOINT RightWrist
						{
							OFFSET -30.7431 0.0000 0.0000
							CHANNELS 3 Zrotation Xrotation Yrotation
							End Site
							{
								OFFSET -0.0000 -14.7500 0.0000
							}
						}
					}
				}
			}
		}
	}
	JOINT LeftHip
	{
		OFFSET 11.8000 0.0000 0.0000
		CHANNELS 3 Zrotation Xrotation Yrotation
		JOINT LeftKnee
		{
			OFFSET -0.0000 -39.7832 0.0000
			CHANNELS 3 Zrotation Xrotation Yrotation
			JOINT LeftAnkle
			{
				OFFSET -0.0000 -41.7317 0.0000
				CHANNELS 3 Zrotation Xrotation Yrotation
				End Site
				{
					OFFSET -0.0000 -4.9167 16.7167
				}
			}
		}
	}
	JOINT RightHip
	{
		OFFSET -11.8000 0.0000 0.0000
		CHANNELS 3 Zrotation Xrotation Yrotation
		JOINT RightKnee
		{
			OFFSET -0.0000 -39.7832 0.0000
			CHANNELS 3 Zrotation Xrotation Yrotation
			JOINT RightAnkle
			{
				OFFSET -0.0000 -41.7317 0.0000
				CHANNELS 3 Zrotation Xrotation Yrotation
				End Site
				{
					OFFSET -0.0000 -4.9167 16.7167
				}
			}
		}
	}
}
MOTION
Frames: 11
Frame Time: 0.010000
-1.4315 88.1232 47.2537 359.2195 348.8509 183.3056 356.9848 348.8982 1.7448 5.4426 20.2671 1.0624 358.0424 357.9012 358.5310 359.6491 16.6533 358.6177 340.7390 357.7013 13.4207 327.8642 60.6770 327.5671 10.4524 356.4698 323.7555 89.4303 356.1457 349.6356 27.4809 356.9610 347.4978 31.6187 53.5876 25.4070 333.4462 352.7785 29.6171 269.7719 355.2745 359.0905 356.7819 331.0267 2.8072 357.2174 20.9582 1.3918 0.5901 358.2297 14.0997 2.1164 2.4144 3.0632 7.5440 14.8354 12.5371 345.0298 334.9860 311.3742 
-1.5963 88.0696 46.6141 358.9911 348.8394 182.9777 356.7514 348.9799 1.8416 5.3406 20.1344 1.2131 357.8659 358.1067 358.7247 359.2999 16.7293 358.8658 340.5761 357.6828 13.4046 328.1909 60.5726 327.4160 10.3808 356.5770 323.7682 89.5030 356.2405 349.8463 27.2756 356.9659 347.5310 32.4815 53.9351 24.5886 333.4681 352.8728 29.3864 269.7721 355.2792 358.8535 356.5601 331.1732 2.8615 357.2194 21.5019 1.4337 1.3617 357.9347 14.1173 1.7809 2.4423 2.9170 7.5556 15.5960 12.4728 345.5086 334.5423 311.5447 
-1.7669 88.0105 45.9760 358.8038 348.8498 182.6306 356.6153 349.0814 1.9051 5.1485 19.9937 1.3254 357.8043 358.3523 358.8380 359.0090 16.8334 359.0157 340.5194 357.7100 13.3074 328.7392 60.6709 326.9484 10.4327 356.5815 323.8621 89.7226 356.4889 350.4748 27.0740 356.9753 347.5428 33.5912 54.2947 23.5525 333.3730 352.8984 29.2426 269.8172 355.2793 358.7811 356.3766 331.4176 3.0099 357.2263 21.9042 1.3799 1.9829 357.6559 14.2507 1.4618 2.4431 2.8383 7.5927 16.4579 12.5556 345.9341 334.0495 311.7611 
-1.9423 87.9601 45.3527 358.6211 348.8514 182.2220 356.4688 349.1479 2.0021 5.0301 19.8994 1.4621 357.7525 358.5456 359.0296 358.4341 17.0375 359.2952 340.3438 357.6395 13.4838 330.1382 60.9179 325.6209 10.5584 356.5393 324.1019 89.5092 356.2975 350.6234 26.8847 356.9820 347.5066 34.1138 54.6458 23.1018 333.5269 353.0154 28.9709 269.9278 355.2871 358.7534 356.1881 331.6902 3.1598 357.2567 22.1905 1.6395 2.5369 357.3547 14.1682 1.0818 2.3658 2.7360 7.6939 17.3641 12.5809 346.4085 333.5826 312.1076 
-2.1085 87.9066 44.7030 358.4499 348.8847 181.7966 356.3124 349.0967 1.9889 4.9746 19.9696 1.4662 357.5888 358.8923 359.2597 358.0524 17.0654 359.5785 340.1741 357.6277 13.4205 330.6396 60.8636 325.2741 10.5147 356.6054 324.1152 89.6852 356.3303 350.6175 26.9590 357.0360 347.9124 35.0102 54.0695 21.7574 334.2914 353.2905 29.3473 270.0295 355.4303 359.5174 356.0178 332.0627 3.4078 357.3094 22.3796 1.8634 3.0408 357.0861 14.0243 0.7071 2.2649 2.8415 7.8675 18.3656 12.5563 346.9393 333.1150 312.3357 
-2.2801 87.8724 44.0691 358.2902 348.9097 181.4073 356.2478 349.0636 2.0225 4.7667 20.0640 1.5413 357.5645 359.0569 359.5143 357.4613 17.2121 359.9275 340.0446 357.6256 13.4308 330.9732 60.5109 325.0714 10.3758 356.6460 324.0181 88.8110 356.3287 349.7727 26.9652 357.0919 348.0263 35.2095 54.0062 21.4015 334.8006 353.4261 29.3627 270.2091 355.3570 0.2501 355.8757 332.4022 3.6441 357.2963 22.6253 2.0585 3.3799 356.7159 13.9746 0.3100 2.0220 2.2231 7.5847 19.9222 13.9975 348.7280 332.7498 312.8260 
-2.4816 87.8567 43.4509 358.1382 348.8725 181.0783 356.1990 348.9958 2.0071 4.6037 20.1028 1.5557 357.4422 359.3507 359.7157 357.0344 17.2331 0.2334 339.9360 357.6285 13.3742 331.4597 60.4757 324.6536 10.4714 356.6191 323.9946 89.3344 356.3733 350.0397 26.8357 357.0844 347.8798 34.8776 54.5712 21.7867 335.0331 353.4835 29.0308 270.4450 355.2780 0.9454 355.6411 332.6605 3.8148 357.3980 22.8851 2.1443 3.6247 356.3097 13.9434 359.8468 1.6742 1.9206 7.7688 21.3188 14.0683 349.3059 332.1699 313.3450 
-2.6501 87.8412 42.8242 357.9854 348.9068 180.7108 356.0714 348.9752 1.9918 4.5548 20.1597 1.5607 357.1561 359.7719 0.0420 356.8305 17.0765 0.5102 339.6865 357.5894 13.4547 332.0394 60.0377 324.2172 10.1590 356.7610 323.9897 89.3029 356.1581 349.6394 26.8857 357.1190 348.0114 34.9361 54.3622 21.3528 335.7558 353.7161 29.2710 270.6375 355.3061 2.1074 355.5101 333.0080 4.0475 357.4123 23.0821 2.4659 3.1352 355.8567 13.9320 359.3905 1.3411 1.8131 8.2470 22.6382 13.2169 350.1722 331.6187 314.1395 
-2.8191 87.8388 42.2000 357.8459 348.9470 180.3909 355.9517 348.9644 1.9458 4.4974 20.2040 1.5334 357.3034 359.8814 0.2766 355.8545 17.4646 0.9538 339.5658 357.5606 13.3629 332.1258 59.8192 324.1922 10.1725 356.7022 323.9019 89.8727 356.3053 349.7641 26.9053 357.1644 348.0697 34.8816 54.2562 21.1265 336.3242 353.8442 29.4706 271.0087 355.3021 3.2037 355.4084 333.4063 4.0868 357.3156 23.2149 2.8025 3.2296 355.4877 13.8165 358.9052 0.8276 1.2281 8.5872 24.4881 13.0271 350.4045 331.0286 314.7511 
-3.0694 87.8574 41.6130 357.6648 348.7625 180.3308 356.0246 348.7018 1.7553 4.0832 20.3785 1.4000 357.4949 0.0077 0.4788 355.3034 17.5040 1.2131 339.6133 357.5922 13.3557 332.8819 59.7050 323.4470 10.2577 356.6748 323.8816 89.6610 356.2582 349.7738 26.9626 357.1070 347.9155 34.4891 54.4773 21.4610 336.6476 353.8933 29.4286 271.4106 355.1969 4.1635 354.9815 333.5368 3.3865 357.2138 23.3789 3.2524 3.1756 355.1105 13.9711 358.2824 0.2147 0.4957 8.7326 25.9633 13.4347 351.9584 331.3667 315.6049 
-3.2123 87.8539 40.9937 357.5629 348.9086 179.9871 355.9556 348.8229 1.7061 4.0393 20.3802 1.3731 357.0117 0.2422 0.8812 355.1225 17.6358 1.6324 339.5721 357.5620 13.5147 333.1441 59.8170 322.9649 10.7230 356.4466 324.1015 89.6547 356.2368 350.1266 27.0801 357.1317 348.2126 34.4522 54.2489 20.8972 337.2989 354.0542 29.8117 271.8207 355.2521 5.2590 355.0091 334.0346 3.6837 357.1217 23.5710 3.0024 3.2859 354.7079 14.2067 357.8145 359.6729 0.0698 8.8831 28.0716 13.7826 352.5534 331.5254 316.4663 
